{"title":"Bad.Ass.2012.BRRip.XviD.AC3-Feel-Free","uid":7303443,"size":1305776019,"categoryP":"video","categoryS":"movies","magnet":"?xt=urn:btih:f37fe52db91a7841477a45fcdceef92e25255890&amp;dn=Bad.Ass.2012.BRRip.XviD.AC3-Feel-Free&amp;tr=udp%3A%2F%2Ftracker.openbittorrent.com%3A80&amp;tr=udp%3A%2F%2Fopen.demonii.com%3A1337&amp;tr=udp%3A%2F%2Ftracker.coppersurfer.tk%3A6969&amp;tr=udp%3A%2F%2Fexodus.desync.com%3A6969","seeders":0,"leechers":1,"uploader":"maximersk","files":7,"time":1338115970,"description":"Bad.Ass.2012.BRRip.XviD.AC3-Feel-Free\n\n\n\n\n\n\nA Vietnam veteran who becomes a local hero after saving a man from attackers on a city bus decides to take action when his best friend is murdered and the police show little interest in solving the crime. \n\nGenre:Action | Fantasy | Sci-Fi\nLanguage:English\nIMDb:http://www.imdb.com/title/tt1928330/\nSource:720p.BluRay-HDChina Thanks!\nEncoder:Tony\n\nFormat : AVI\nFormat/Info : Audio Video Interleave\nFile size : 1.22 GiB\nDuration : 1h 30mn\nOverall bit rate : 1 929 Kbps\n\nVideo\nID : 0\nFormat : MPEG-4 Visual\nFormat profile : Advanced Simple@L5\nFormat settings, BVOP : 1\nFormat settings, QPel : No\nFormat settings, GMC : No warppoints\nFormat settings, Matrix : Default (H.263)\nCodec ID : XVID\nCodec ID/Hint : XviD\nDuration : 1h 30mn\nBit rate : 1 535 Kbps\nWidth : 640 pixels\nHeight : 344 pixels\nDisplay aspect ratio : 1.85:1\nFrame rate : 23.976 fps\nColor space : YUV\nChroma subsampling : 4:2:0\nBit depth : 8 bits\nScan type : Progressive\nCompression mode : Lossy\nBits/(Pixel*Frame) : 0.291\nStream size : 990 MiB (80%)\nWriting library : XviD 1.2.1\n\nAudio\nID : 1\nFormat : AC-3\nFormat/Info : Audio Coding 3\nMode extension : CM (complete main)\nFormat settings, Endianness : Big\nCodec ID : 2000\nDuration : 1h 30mn\nBit rate mode : Constant\nBit rate : 384 Kbps\nChannel(s) : 6 channels\nChannel positions : Front: L C R, Side: L R, LFE\nSampling rate : 48.0 KHz\nBit depth : 16 bits\nCompression mode : Lossy\nStream size : 248 MiB (20%)\nAlignment : Aligned on interleaves\nInterleave, duration : 42 ms (1.00 video frame)\nInterleave, preload duration : 512 ms","torrent":{"xt":"urn:btih:f37fe52db91a7841477a45fcdceef92e25255890","amp;dn":"Bad.Ass.2012.BRRip.XviD.AC3-Feel-Free","amp;tr":["udp%3A%2F%2Ftracker.openbittorrent.com%3A80","udp%3A%2F%2Fopen.demonii.com%3A1337","udp%3A%2F%2Ftracker.coppersurfer.tk%3A6969","udp%3A%2F%2Fexodus.desync.com%3A6969"],"infoHash":"f37fe52db91a7841477a45fcdceef92e25255890","infoHashBuffer":{"type":"Buffer","data":[243,127,229,45,185,26,120,65,71,122,69,252,220,238,249,46,37,37,88,144]},"announce":[],"urlList":[]}}